<svg  width="53" height="42" viewBox="0 0 53 42" fill="none" xmlns="http://www.w3.org/2000/svg">
<path id="A" d="M32.8869 25.2448C32.9623 25.4281 33 25.5973 33 25.7524C33 26.1189 32.8718 26.422 32.6155 26.6617C32.3592 26.8873 32.0652 27.0001 31.7334 27.0001C31.462 27.0001 31.2132 26.9225 30.9871 26.7674C30.776 26.6124 30.6101 26.4009 30.4895 26.133L29.3134 23.5742H22.5735L21.3974 26.1542C21.2919 26.422 21.126 26.6335 20.8998 26.7886C20.6888 26.9296 20.455 27.0001 20.1987 27.0001C19.8067 27.0001 19.5051 26.9014 19.294 26.704C19.098 26.5066 19 26.2388 19 25.9004C19 25.7735 19.0226 25.6396 19.0679 25.4986L24.6995 12.8525C24.8202 12.5705 25.0011 12.352 25.2423 12.1969C25.4836 12.0418 25.755 11.9784 26.0566 12.0066C26.328 12.0066 26.5768 12.0841 26.8029 12.2392C27.0442 12.3802 27.2176 12.5846 27.3231 12.8525L32.8869 25.2448ZM28.2052 21.1422L25.9209 16.1937L23.6818 21.1422H28.2052Z" fill="#FFC25C"/>
<path  d="M18.3333 2.22148C13.9778 -0.747311 2 16 2 27C2 38 13.9778 41.3105 18.3333 38.3417C22.6889 35.3729 30.3111 34.3833 34.6667 38.3417C39.0222 42.3001 51 38 51 27C51 16 39.5667 -0.747329 34.6667 2.22147C29.7667 5.19027 22.6889 5.19026 18.3333 2.22148Z" stroke="#FFC25C" stroke-width="3"/>
</svg>
